<?xml version="1.0" encoding="utf-8"?>
<!-- Generator: Adobe Illustrator 28.0.0, SVG Export Plug-In . SVG Version: 6.00 Build 0)  -->
<svg version="1.1" id="Layer_1" xmlns="http://www.w3.org/2000/svg" xmlns:xlink="http://www.w3.org/1999/xlink" x="0px" y="0px"
	 viewBox="0 0 106.89 97.78" style="enable-background:new 0 0 106.89 97.78;" xml:space="preserve">
<style type="text/css">
	.st0{fill:#8D8D8E;}
	.st1{fill:#D9DCDC;}
	.st2{fill:#01DFFC;}
	.st3{fill:#CDD0D0;}
	.st4{fill:#B5B5B5;}
	.st5{fill:#ADB1B2;}
	.st6{fill:#C7C7C7;}
	.st7{fill:#A9AAAA;}
	.st8{fill:#E8EDEE;}
	.st9{fill:#9A9A9A;}
	.st10{fill:#B8BABA;}
	.st11{fill:#BFC1C1;}
	.st12{fill:#9EA1A1;}
	.st13{fill:#919292;}
</style>
<path class="st0" d="M2.14,56.67c2.67-1.67,5.35-3.32,8.01-5.01C20.7,44.95,31.27,38.29,42,31.9c1.44-0.86,2.9-1.67,4.37-2.5
	c0.33-0.19,0.66-0.45,1.09-0.36c0.31,0.44-0.3,0.73-0.14,1.13c0.42,0.29,0.75,0.03,1.09-0.17c6.12-3.62,12.46-6.83,18.79-10.07
	c1.35-0.69,2.62-1.54,4.08-2c0.09,0.61-0.26,0.91-0.74,1.22c-4.04,2.59-7.92,5.45-12.27,7.53c-0.31,0.15-0.71,0.25-0.64,0.74l0-0.01
	c-0.16,0-0.33-0.05-0.47,0c-1.49,0.56-2.79,1.49-4.2,2.21c-0.16,0.08-0.13,0.28-0.13,0.43l0-0.01c-0.74,0.02-1.43,0.12-1.69,0.96
	l0.01-0.01c-0.74,0.03-1.44,0.12-1.69,0.99c-0.09,0.16-0.23,0.22-0.41,0.22c-0.38-0.03-0.79-0.11-0.8,0.48
	c-0.1,0.16-0.24,0.22-0.42,0.23c-0.57-0.02-1.14-0.04-1.25,0.73l0.01-0.01c-0.68,0.02-1.34,0.08-1.46,0.96
	c-0.09,0.16-0.23,0.23-0.4,0.25c-0.57-0.04-1.12-0.03-1.29,0.68c-0.16,0.02-0.32,0.04-0.48,0.06c-0.01-0.2-0.01-0.39-0.02-0.59
	c0.2-0.3,0.4-0.61,0.73-1.12C30.51,41.66,17.49,49.1,5.2,57.78c0.58,0,1.17,0,1.75,0c0,0.39-0.31,0.42-0.57,0.6
	c-0.73,0.5-1.82,0.6-2.06,1.7c-0.71,0.28-1.44,0.26-2.18,0.18C2.14,59.07,2.14,57.87,2.14,56.67z"/>
<path class="st1" d="M105.59,2.18c0.08,0,0.16,0,0.24,0c0,0.88,0,1.76,0,2.64c-0.1-0.02-0.21-0.04-0.31-0.07
	c0.09-0.54,0.08-1.08,0.02-1.62c0-0.24,0-0.48-0.01-0.72C105.55,2.34,105.57,2.26,105.59,2.18z"/>
<path class="st2" d="M6.95,57.78c-0.58,0-1.17,0-1.75,0c12.29-8.68,25.31-16.12,38.45-23.89c-0.33,0.51-0.53,0.81-0.73,1.12
	c-0.21,0.2-0.4,0.41,0.02,0.59c0.16-0.02,0.32-0.04,0.48-0.06c0.51-0.07,0.94-0.3,1.29-0.68c0.18-0.01,0.31-0.09,0.4-0.25
	c0.55-0.22,1.05-0.53,1.46-0.96l-0.01,0.01c0.48-0.13,0.9-0.36,1.25-0.73c0.18-0.01,0.32-0.07,0.42-0.23
	c0.33-0.06,0.59-0.23,0.8-0.48c0.17,0,0.32-0.06,0.41-0.22c0.61-0.24,1.23-0.48,1.69-0.99l-0.01,0.01c0.62-0.23,1.23-0.47,1.69-0.96
	l0,0.01c1.67-0.75,3.29-1.61,4.8-2.65l0,0.01c0.52-0.09,0.95-0.41,1.4-0.65c10.94-5.85,22.01-11.45,33.34-16.52
	c1.67-0.75,3.25-1.72,5.07-2.08c-0.96,1.04-1.92,2.09-2.89,3.13c-2.28,2.24-4.46,4.57-6.28,7.21c-1.01,1.46-0.92,1.67,0.58,2.39
	c-3.37,2.26-5.92,5.24-7.77,8.83c-1.31,2.17-2.14,4.52-2.63,7c-0.36,0.81-0.41,1.7-0.56,2.56c-0.09,0.52-0.29,0.8-0.88,0.92
	c-1.13,0.24-2.29,0.36-3.36,0.81c-3.42,0.69-6.77,1.65-10.07,2.76c-5.53,1.48-10.93,3.4-16.37,5.18c-0.4,0.13-0.61,0.36-0.59,0.77
	c0.06,1.83-0.36,3.64-0.19,5.48c-0.11,0.55-0.17,1.09-0.01,1.64c0.15,0.01,0.28,0.05,0.38,0.02c3.84-1.19,7.67-2.4,11.5-3.6
	c1.8-0.5,3.6-1.03,5.41-1.5c2.19-0.56,4.33-1.37,6.6-1.62c-1.04,1.1-2.08,2.2-3.11,3.31c-1.08,1.18-2.14,2.39-2.85,3.84
	c-0.21,0.43-0.57,0.96,0.16,1.31c0.31,0.25,0.1,0.37-0.11,0.52c-0.61,0.44-1.29,0.84-1.8,1.38c-0.61,0.64-1.31,0.98-2.12,1.23
	c-3.24,1-6.46,2.04-9.69,3.08c-0.94,0.3-1.87,0.64-2.77,0.94c0.12,1.51,1.11,4.15,2.13,5.75c0.83,1.74,1.82,3.36,3.13,4.78
	c1.04,1.62,2.36,3.01,3.72,4.36c1.84,1.82,3.63,3.7,5.82,5.12c1.06,0.98,2.25,1.79,3.45,2.57c-0.01,0.15-0.01,0.3-0.02,0.46
	c-2.09-0.65-4.18-1.3-6.27-1.95c-0.92-0.57-1.96-0.85-2.95-1.27c-3.65-1.54-7.08-3.49-10.46-5.53c-1.2-0.85-2.4-1.7-3.6-2.55
	c-2.23-1.85-4.43-3.72-6.48-5.76c-0.23-0.45-0.6-0.74-1.06-0.91c-1.76-0.65-3.57-1.09-5.46-1.2c-1.59-0.34-3.19-0.34-4.79-0.13
	c-0.75,0-1.51,0-2.38,0c2.72-1.51,5.35-2.97,8.02-4.46c-0.54-1.02-1.03-1.92-1.69-2.71c-0.64-1.25-1.35-2.45-2.21-3.57
	c-0.24-0.82-0.7-0.4-1.09-0.17c-1.88,1.11-3.74,2.23-5.61,3.34c-1.09-0.71-2.06-1.49-3.22-1.93c-1.63-0.99-3.36-1.71-5.27-1.95
	C10.17,57.66,8.57,57.49,6.95,57.78z"/>
<path class="st3" d="M50.14,71.55c-1.02-1.6-2.01-4.25-2.13-5.75c0.9-0.31,1.83-0.64,2.77-0.94c3.23-1.04,6.45-2.08,9.69-3.08
	c0.82-0.25,1.52-0.59,2.12-1.23c0.51-0.54,1.19-0.93,1.8-1.38c0.21-0.15,0.42-0.27,0.11-0.52c0.9-0.5,1.79-1,2.69-1.5
	c1.02,0.59,2.02,0.03,3.02-0.09c0.27-0.03,0.52-0.19,0.85-0.08c-0.27,0.43-0.71,0.58-1.1,0.82c-2.19,1.31-4.38,2.62-5.92,4.74
	c-0.41,0.57-1.04,0.7-1.65,0.86c-3.78,0.98-7.52,2.08-11.21,3.36c-0.27,0.09-0.53,0.18-0.74,0.43c0.25,1.28,0.98,2.4,1.39,3.65
	C51.3,71.13,50.85,71.63,50.14,71.55z"/>
<path class="st4" d="M29.14,62.37c0.66,0.79,1.15,1.69,1.69,2.71c-2.67,1.49-5.3,2.95-8.02,4.46c0.87,0,1.62,0,2.38,0
	c-0.12,0.83-0.94,0.95-1.46,1.36c-0.37,0.3-0.79,0.5-0.71,1.07c-4.41,0.61-8.71,1.73-13.04,2.82c5.75-3.65,11.62-7.07,17.52-10.31
	c0.21-0.47-0.19-0.74-0.17-1.1C28.17,63.47,28.61,62.85,29.14,62.37z"/>
<path class="st5" d="M46.43,55.23c-0.18-1.83,0.24-3.65,0.19-5.48c-0.01-0.42,0.2-0.64,0.59-0.77c5.44-1.77,10.84-3.69,16.37-5.18
	c-0.07,0.59-0.62,0.62-1,0.86c-0.96,0.61-2.07,1.04-2.6,2.17c-2.97,1-5.92,2.09-8.93,2.98c-1.63,0.48-2.64,1.22-2.54,3.04
	c0.03,0.47-0.04,0.95-0.06,1.43C47.85,54.75,47.24,55.22,46.43,55.23z"/>
<path class="st6" d="M67.2,57.14c-0.9,0.5-1.79,1-2.69,1.5c-0.73-0.35-0.37-0.87-0.16-1.31c0.71-1.45,1.76-2.66,2.85-3.84
	c1.02-1.11,2.07-2.21,3.11-3.31c0,0-0.01,0.02-0.01,0.02c0.08-0.07,0.15-0.14,0.23-0.2c0.26-0.74,0.9-1.08,1.54-1.4
	c0.53-0.27,0.95-0.59,0.88-1.27c2.42-0.79,4.9-1.26,7.56-1.78c-0.23,0.48-0.54,0.62-0.81,0.77c-4.43,2.4-8.12,5.72-11.59,9.31
	C67.69,56.06,67.3,56.52,67.2,57.14z"/>
<path class="st7" d="M81.08,29.74c1.85-3.6,4.4-6.58,7.77-8.83c0.57-0.41,1.1-0.89,1.72-1.22c0.62-0.34,1.09-0.75,1.34-1.42
	c1.75,0.07,3.4-0.41,5.04-0.93c0,0.14-0.01,0.28-0.01,0.43c-5.4,2.94-10.16,6.63-13.65,11.79c-0.53-0.1-1.01,0.13-1.5,0.27
	C81.53,29.9,81.27,30.11,81.08,29.74z"/>
<path class="st8" d="M46.58,80.08c3.38,2.05,6.81,4,10.46,5.53c0.99,0.42,2.03,0.69,2.95,1.27c-1.02,1.23-2.14,1.43-3.68,0.79
	c-3.95-1.64-7.66-3.69-11.24-5.99c-0.09-0.06-0.14-0.19-0.21-0.28C45.48,81.02,46.29,80.89,46.58,80.08z"/>
<path class="st9" d="M94.54,11.31c0.96-1.04,1.92-2.09,2.89-3.13c0,0-0.02,0.02-0.02,0.02c0.05-0.06,0.1-0.13,0.15-0.19
	c0.46-0.49,0.96-0.93,1.55-1.27c1.72-1.01,3.42-2.04,5.14-3.04c0.4-0.23,0.73-0.65,1.28-0.56c0.06,0.54,0.07,1.08-0.02,1.62
	c-2.63,2.01-5.18,4.11-7.68,6.27c-0.21,0.18-0.44,0.34-0.65,0.51c-1.18-0.18-1.92,0.92-3.04,1.15
	C94.15,12.12,94.71,11.82,94.54,11.31z"/>
<path class="st10" d="M46.43,55.23c0.82-0.01,1.42-0.47,2.02-0.95c3.58-1.05,7.16-2.09,10.74-3.15c0.42-0.12,0.83-0.27,1.28-0.26
	c0.04,0.95-0.46,1.48-1.32,1.8c-0.32,0.12-0.84,0.06-0.85,0.63c-3.83,1.2-7.67,2.4-11.5,3.6c-0.1,0.03-0.23-0.01-0.38-0.02
	C46.26,56.32,46.32,55.77,46.43,55.23z"/>
<path class="st8" d="M62.82,85.8c-2.2-1.42-3.99-3.3-5.82-5.12c-1.36-1.34-2.68-2.74-3.72-4.36c0.16-0.68,0.99-0.79,1.2-1.43
	c1.33,1.53,2.61,3.09,4,4.56c1.01,1.07,2.13,2.04,3.22,3.02c0.53,0.48,1.21,0.79,1.57,1.44C63.67,84.67,62.73,85.12,62.82,85.8z"/>
<path class="st11" d="M58.3,53.3c0.01-0.57,0.53-0.51,0.85-0.63c0.86-0.31,1.36-0.84,1.32-1.8c1.78-0.82,3.68-1.23,5.55-1.76
	c2.29-0.64,4.61-1.2,6.92-1.79c0.07,0.68-0.35,1-0.88,1.27c-0.64,0.33-1.28,0.66-1.54,1.4c-0.11,0.03-0.22,0.06-0.23,0.2l0.01-0.02
	c-2.27,0.25-4.41,1.05-6.6,1.62C61.9,52.26,60.1,52.8,58.3,53.3z"/>
<path class="st12" d="M94.54,11.31c0.17,0.51-0.39,0.81-0.4,1.39c1.12-0.24,1.86-1.33,3.04-1.15c-1.17,1.13-2.34,2.26-3.51,3.39
	c-0.66,0.64-1.2,1.38-1.72,2.13c-0.29,0.41-0.35,0.79-0.05,1.2c-0.25,0.66-0.71,1.08-1.34,1.42c-0.61,0.33-1.15,0.81-1.72,1.22
	c-1.5-0.72-1.59-0.93-0.58-2.39C90.08,15.88,92.26,13.55,94.54,11.31z"/>
<path class="st10" d="M73.65,41.03c1.08-0.45,2.24-0.58,3.36-0.81c0.59-0.12,0.79-0.4,0.88-0.92c0.14-0.86,0.19-1.74,0.56-2.56
	c0.73-0.03,1.23-0.69,1.96-0.71c-0.03,1.64-0.63,3.21-0.55,4.86c0.03,0.5-0.38,0.7-0.77,0.78c-2.97,0.59-5.85,1.5-8.79,2.2
	c0.51-1.25,1.78-1.57,2.76-2.24C73.31,41.46,73.69,41.47,73.65,41.03z"/>
<path class="st7" d="M29.14,62.37c-0.53,0.48-0.97,1.11-1.82,1.03c-0.68-0.57-0.83-1.54-1.62-2.2c-1.35,0.91-2.73,1.83-4.1,2.75
	c-0.13,0.09-0.25,0.2-0.38,0.29c-1.25,0.87-1.39,0.84-2.33-0.48c0.06-0.24,0.2-0.42,0.41-0.56c1.53-0.97,3.02-2,4.6-2.87
	c0.98-0.54,1.82-1.41,3.02-1.53C27.79,59.92,28.5,61.12,29.14,62.37z"/>
<path class="st4" d="M73.65,41.03c0.04,0.44-0.34,0.43-0.59,0.6c-0.98,0.67-2.25,0.99-2.76,2.24c-2.98,0.87-5.96,1.74-8.94,2.61
	c-0.46,0.13-0.89,0.38-1.38,0.35c0.53-1.13,1.64-1.56,2.6-2.17c0.38-0.24,0.93-0.27,1-0.86C66.88,42.68,70.23,41.72,73.65,41.03z"/>
<path class="st3" d="M36.5,71.77c2.05,2.04,4.25,3.92,6.48,5.76c-0.8,0.28-1.46,1.03-2.43,0.73c-2.14-1.69-4.23-3.43-6.02-5.5
	C35.13,72.32,35.69,71.79,36.5,71.77z"/>
<path class="st11" d="M36.5,71.77c-0.81,0.02-1.37,0.55-1.97,1c-2.13-0.51-4.3-0.75-6.47-1c0.07-0.58,0.63-0.66,0.98-0.94
	c0.4-0.32,0.87-0.57,0.94-1.16c1.88,0.11,3.69,0.54,5.46,1.2C35.9,71.04,36.27,71.32,36.5,71.77z"/>
<path class="st9" d="M11.75,58.09c1.91,0.24,3.64,0.96,5.27,1.95c-0.16,0.97-1.24,0.86-1.71,1.45c-1.83-0.8-3.8-1.04-5.72-1.46
	c-0.01-0.41,0.4-0.54,0.56-0.8C10.53,58.59,11.53,58.9,11.75,58.09z"/>
<path class="st5" d="M80.41,36.03c-0.73,0.02-1.24,0.68-1.96,0.71c0.49-2.48,1.32-4.83,2.63-7c0.2,0.37,0.45,0.16,0.71,0.08
	c0.49-0.14,0.96-0.37,1.5-0.27C82.19,31.66,81.13,33.77,80.41,36.03z"/>
<path class="st12" d="M15.3,61.49c0.48-0.59,1.55-0.48,1.71-1.45c1.16,0.44,2.12,1.22,3.22,1.93c1.87-1.11,3.73-2.23,5.61-3.34
	c0.39-0.23,0.85-0.64,1.09,0.17c-1.2,0.12-2.04,0.99-3.02,1.53c-1.58,0.88-3.07,1.91-4.6,2.87c-0.21,0.13-0.35,0.32-0.41,0.56
	C17.7,63,16.5,62.25,15.3,61.49z"/>
<path class="st10" d="M29.98,69.67c-0.07,0.58-0.54,0.84-0.94,1.16c-0.35,0.28-0.91,0.37-0.98,0.94c-1.68,0.02-3.37,0-5.04,0.21
	c-0.08-0.57,0.34-0.77,0.71-1.07c0.52-0.41,1.33-0.53,1.46-1.36C26.79,69.33,28.39,69.32,29.98,69.67z"/>
<path class="st13" d="M11.75,58.09c-0.21,0.81-1.21,0.51-1.61,1.14c-0.16,0.26-0.56,0.39-0.56,0.8c-1.75,0.02-3.5,0.03-5.26,0.05
	c0.24-1.1,1.33-1.2,2.06-1.7c0.26-0.18,0.57-0.21,0.57-0.6C8.57,57.49,10.17,57.66,11.75,58.09z"/>
<path class="st1" d="M40.55,78.26c0.97,0.3,1.63-0.45,2.43-0.73c1.2,0.85,2.4,1.7,3.6,2.55c-0.3,0.8-1.1,0.94-1.73,1.31
	C43.34,80.46,41.85,79.5,40.55,78.26z"/>
<path class="st1" d="M54.47,74.9c-0.21,0.63-1.05,0.75-1.2,1.43c-1.31-1.42-2.3-3.05-3.13-4.78c0.7,0.08,1.16-0.42,1.7-0.72
	C52.72,72.18,53.6,73.54,54.47,74.9z"/>
<path class="st11" d="M96.93,17.76c0-0.14,0.01-0.28,0.01-0.43c0.26-0.31,0.55-0.35,0.91-0.11C97.66,17.63,97.32,17.73,96.93,17.76z
	"/>
<path class="st3" d="M66.25,88.83c0.01-0.15,0.01-0.3,0.02-0.46c0.33,0.04,0.69,0.13,0.53,0.54C66.72,89.14,66.41,89.1,66.25,88.83z
	"/>
<path class="st1" d="M98.38,16.84c0.13-0.25,0.32-0.25,0.56-0.19c-0.04,0.41-0.31,0.39-0.56,0.41
	C98.38,16.98,98.38,16.91,98.38,16.84z"/>
<path class="st11" d="M98.38,16.84c0,0.07-0.01,0.15-0.01,0.22C98.16,16.98,98.2,16.9,98.38,16.84z"/>
<path class="st13" d="M105.54,3.14c-0.55-0.1-0.88,0.33-1.28,0.56c-1.72,1-3.42,2.03-5.14,3.04c-0.59,0.34-1.09,0.78-1.55,1.27
	c-0.05,0.06-0.1,0.13-0.15,0.19c0,0,0.02-0.02,0.02-0.02c-1.83,0.36-3.41,1.33-5.07,2.08c-11.33,5.07-22.4,10.67-33.34,16.52
	c-0.45,0.24-0.88,0.56-1.4,0.65c-0.07-0.49,0.33-0.59,0.64-0.74c4.35-2.09,8.23-4.94,12.27-7.53c0.48-0.31,0.83-0.61,0.74-1.22
	c1.38-0.97,2.94-1.59,4.44-2.34c9.25-4.62,18.55-9.11,28.17-12.92c0.48-0.19,0.94-0.43,1.47-0.48c0.06,0.07,0.12,0.14,0.19,0.22
	C105.53,2.66,105.53,2.9,105.54,3.14z"/>
<path class="st3" d="M48.45,28.24c0.16-0.16,0.3-0.36,0.63-0.26c0.04,0.43-0.25,0.56-0.6,0.64C48.47,28.49,48.46,28.36,48.45,28.24z
	"/>
<path class="st4" d="M48.45,28.24c0.01,0.13,0.02,0.25,0.04,0.38c-0.09,0.13-0.2,0.24-0.38,0.22c-0.14-0.03-0.28-0.05-0.42-0.08
	C47.8,28.37,48.16,28.36,48.45,28.24z"/>
<path class="st9" d="M105.53,2.42c-0.06-0.07-0.12-0.14-0.19-0.22c0.08-0.01,0.16-0.01,0.24-0.02
	C105.57,2.26,105.55,2.34,105.53,2.42z"/>
<path class="st0" d="M47.69,28.75c0.14,0.03,0.28,0.05,0.42,0.08C47.94,28.95,47.73,29.26,47.69,28.75z"/>
<path class="st13" d="M57.62,27.42c-1.51,1.04-3.13,1.9-4.8,2.65c0-0.16-0.03-0.35,0.13-0.43c1.41-0.72,2.71-1.65,4.2-2.21
	C57.28,27.37,57.46,27.42,57.62,27.42z"/>
<path class="st13" d="M51.13,31.01c-0.46,0.5-1.07,0.75-1.69,0.99C49.69,31.13,50.39,31.04,51.13,31.01z"/>
<path class="st13" d="M52.82,30.06c-0.46,0.5-1.07,0.74-1.69,0.96C51.39,30.18,52.08,30.07,52.82,30.06z"/>
<path class="st13" d="M46.57,33.65c-0.41,0.44-0.91,0.74-1.46,0.96C45.23,33.73,45.89,33.67,46.57,33.65z"/>
<path class="st13" d="M47.82,32.93c-0.35,0.36-0.77,0.6-1.25,0.73C46.67,32.89,47.25,32.92,47.82,32.93z"/>
<path class="st13" d="M44.71,34.86c-0.35,0.38-0.77,0.61-1.29,0.68C43.59,34.82,44.14,34.82,44.71,34.86z"/>
<path class="st13" d="M49.04,32.22c-0.21,0.25-0.47,0.42-0.8,0.48C48.24,32.11,48.65,32.19,49.04,32.22z"/>
<path class="st13" d="M42.94,35.6c-0.42-0.18-0.23-0.39-0.02-0.59C42.93,35.21,42.93,35.4,42.94,35.6z"/>
<path class="st2" d="M70.29,50.2c0.01-0.14,0.11-0.18,0.23-0.2C70.44,50.06,70.37,50.13,70.29,50.2z"/>
<path class="st2" d="M97.41,8.2c0.05-0.06,0.1-0.13,0.15-0.19C97.51,8.07,97.46,8.14,97.41,8.2z"/>
</svg>
